<svg width="1848" height="362" viewBox="0 0 1848 362" fill="none" xmlns="http://www.w3.org/2000/svg">
<rect y="31" width="300" height="300" rx="32" fill="white"/>
<path d="M25 266H275V285C275 298.255 264.255 309 251 309H49C35.7452 309 25 298.255 25 285V266Z" fill="#454AFD"/>
<rect opacity="0.7" x="25" y="224" width="250" height="42" fill="#454AFD"/>
<rect opacity="0.4" x="25" y="181" width="250" height="43" fill="#454AFD"/>
<path d="M432.921 181L425.14 151.293H391.366L383.762 181H356.884L390.305 57.5729H427.793L461.214 181H432.921ZM409.049 83.2132H407.634L395.61 129.896H421.073L409.049 83.2132ZM472.462 50.1461H498.632V106.378H499.87C502.11 100.955 505.352 96.4754 509.596 92.9388C513.84 89.4022 519.616 87.634 526.925 87.634C531.994 87.634 536.592 88.577 540.718 90.4632C544.962 92.3494 548.557 95.2376 551.505 99.1279C554.57 103.018 556.927 107.969 558.578 113.982C560.346 119.994 561.23 127.126 561.23 135.378C561.23 143.63 560.346 150.762 558.578 156.774C556.927 162.787 554.57 167.738 551.505 171.628C548.557 175.518 544.962 178.406 540.718 180.293C536.592 182.179 531.994 183.122 526.925 183.122C519.616 183.122 513.84 181.413 509.596 177.994C505.352 174.457 502.11 169.919 499.87 164.378H498.632V181H472.462V50.1461ZM515.608 162.787C521.502 162.787 526.041 161.018 529.224 157.482C532.407 153.827 533.998 148.817 533.998 142.451V128.305C533.998 121.939 532.407 116.988 529.224 113.451C526.041 109.797 521.502 107.969 515.608 107.969C511.011 107.969 507.002 109.089 503.584 111.329C500.283 113.569 498.632 117.106 498.632 121.939V148.817C498.632 153.65 500.283 157.187 503.584 159.427C507.002 161.667 511.011 162.787 515.608 162.787ZM621.106 183.122C614.033 183.122 607.667 182.061 602.009 179.939C596.35 177.699 591.517 174.516 587.509 170.39C583.618 166.264 580.612 161.254 578.49 155.36C576.368 149.465 575.307 142.805 575.307 135.378C575.307 127.951 576.368 121.291 578.49 115.396C580.612 109.502 583.618 104.492 587.509 100.366C591.517 96.2397 596.35 93.1157 602.009 90.9937C607.667 88.7539 614.033 87.634 621.106 87.634C628.179 87.634 634.545 88.7539 640.204 90.9937C645.862 93.1157 650.637 96.2397 654.527 100.366C658.535 104.492 661.6 109.502 663.722 115.396C665.844 121.291 666.905 127.951 666.905 135.378C666.905 142.805 665.844 149.465 663.722 155.36C661.6 161.254 658.535 166.264 654.527 170.39C650.637 174.516 645.862 177.699 640.204 179.939C634.545 182.061 628.179 183.122 621.106 183.122ZM621.106 163.671C627.001 163.671 631.598 161.843 634.899 158.189C638.2 154.534 639.85 149.347 639.85 142.628V128.128C639.85 121.408 638.2 116.221 634.899 112.567C631.598 108.912 627.001 107.085 621.106 107.085C615.212 107.085 610.614 108.912 607.314 112.567C604.013 116.221 602.362 121.408 602.362 128.128V142.628C602.362 149.347 604.013 154.534 607.314 158.189C610.614 161.843 615.212 163.671 621.106 163.671ZM711.574 181L678.861 89.7559H706.446L718.294 128.835L726.958 159.25H728.373L737.037 128.835L748.885 89.7559H775.41L742.696 181H711.574ZM835.639 183.122C820.314 183.122 808.702 178.878 800.804 170.39C792.906 161.902 788.956 150.35 788.956 135.732C788.956 128.305 789.958 121.644 791.962 115.75C794.084 109.738 797.032 104.669 800.804 100.543C804.694 96.2986 809.351 93.1157 814.773 90.9937C820.314 88.7539 826.503 87.634 833.341 87.634C840.178 87.634 846.308 88.7539 851.731 90.9937C857.154 93.1157 861.751 96.1807 865.524 100.189C869.296 104.197 872.184 109.089 874.188 114.866C876.31 120.524 877.371 126.89 877.371 133.963V141.744H814.95V143.335C814.95 149.23 816.778 154.004 820.432 157.658C824.086 161.195 829.45 162.963 836.523 162.963C841.946 162.963 846.603 161.961 850.493 159.957C854.383 157.835 857.743 155.065 860.572 151.646L874.719 167.03C871.182 171.392 866.231 175.165 859.865 178.348C853.499 181.53 845.424 183.122 835.639 183.122ZM833.517 106.378C827.859 106.378 823.32 108.146 819.902 111.683C816.601 115.101 814.95 119.758 814.95 125.652V127.067H851.731V125.652C851.731 119.64 850.08 114.925 846.78 111.506C843.597 108.087 839.176 106.378 833.517 106.378ZM1058.48 79.323V181H1031.96V79.323H996.416V57.5729H1094.03V79.323H1058.48ZM1109.69 50.1461H1135.87V106.378H1136.93C1137.99 103.784 1139.28 101.368 1140.82 99.1279C1142.35 96.888 1144.18 94.9429 1146.3 93.2925C1148.54 91.5242 1151.07 90.1685 1153.9 89.2254C1156.85 88.1644 1160.15 87.634 1163.8 87.634C1168.17 87.634 1172.17 88.4002 1175.83 89.9327C1179.48 91.3474 1182.61 93.5283 1185.2 96.4754C1187.79 99.4226 1189.8 103.018 1191.21 107.262C1192.75 111.506 1193.51 116.398 1193.51 121.939V181H1167.34V125.475C1167.34 113.687 1162.21 107.793 1151.96 107.793C1149.95 107.793 1147.95 108.087 1145.94 108.677C1144.06 109.148 1142.35 109.973 1140.82 111.152C1139.28 112.213 1138.05 113.569 1137.1 115.219C1136.28 116.87 1135.87 118.815 1135.87 121.055V181H1109.69V50.1461ZM1259.75 183.122C1244.43 183.122 1232.82 178.878 1224.92 170.39C1217.02 161.902 1213.07 150.35 1213.07 135.732C1213.07 128.305 1214.07 121.644 1216.08 115.75C1218.2 109.738 1221.15 104.669 1224.92 100.543C1228.81 96.2986 1233.47 93.1157 1238.89 90.9937C1244.43 88.7539 1250.62 87.634 1257.46 87.634C1264.29 87.634 1270.42 88.7539 1275.85 90.9937C1281.27 93.1157 1285.87 96.1807 1289.64 100.189C1293.41 104.197 1296.3 109.089 1298.3 114.866C1300.42 120.524 1301.49 126.89 1301.49 133.963V141.744H1239.07V143.335C1239.07 149.23 1240.89 154.004 1244.55 157.658C1248.2 161.195 1253.57 162.963 1260.64 162.963C1266.06 162.963 1270.72 161.961 1274.61 159.957C1278.5 157.835 1281.86 155.065 1284.69 151.646L1298.83 167.03C1295.3 171.392 1290.35 175.165 1283.98 178.348C1277.61 181.53 1269.54 183.122 1259.75 183.122ZM1257.63 106.378C1251.97 106.378 1247.44 108.146 1244.02 111.683C1240.72 115.101 1239.07 119.758 1239.07 125.652V127.067H1275.85V125.652C1275.85 119.64 1274.2 114.925 1270.89 111.506C1267.71 108.087 1263.29 106.378 1257.63 106.378ZM1430.43 181V57.5729H1512.31V79.323H1456.96V107.616H1506.47V129.366H1456.96V181H1430.43ZM1575.36 183.122C1568.29 183.122 1561.93 182.061 1556.27 179.939C1550.61 177.699 1545.78 174.516 1541.77 170.39C1537.88 166.264 1534.87 161.254 1532.75 155.36C1530.63 149.465 1529.57 142.805 1529.57 135.378C1529.57 127.951 1530.63 121.291 1532.75 115.396C1534.87 109.502 1537.88 104.492 1541.77 100.366C1545.78 96.2397 1550.61 93.1157 1556.27 90.9937C1561.93 88.7539 1568.29 87.634 1575.36 87.634C1582.44 87.634 1588.8 88.7539 1594.46 90.9937C1600.12 93.1157 1604.9 96.2397 1608.79 100.366C1612.79 104.492 1615.86 109.502 1617.98 115.396C1620.1 121.291 1621.16 127.951 1621.16 135.378C1621.16 142.805 1620.1 149.465 1617.98 155.36C1615.86 161.254 1612.79 166.264 1608.79 170.39C1604.9 174.516 1600.12 177.699 1594.46 179.939C1588.8 182.061 1582.44 183.122 1575.36 183.122ZM1575.36 163.671C1581.26 163.671 1585.86 161.843 1589.16 158.189C1592.46 154.534 1594.11 149.347 1594.11 142.628V128.128C1594.11 121.408 1592.46 116.221 1589.16 112.567C1585.86 108.912 1581.26 107.085 1575.36 107.085C1569.47 107.085 1564.87 108.912 1561.57 112.567C1558.27 116.221 1556.62 121.408 1556.62 128.128V142.628C1556.62 149.347 1558.27 154.534 1561.57 158.189C1564.87 161.843 1569.47 163.671 1575.36 163.671ZM1640.37 160.665H1668.31V70.4815H1640.37V50.1461H1694.48V160.665H1722.42V181H1640.37V160.665ZM1803.87 164.378H1802.63C1800.27 169.919 1796.97 174.457 1792.73 177.994C1788.6 181.413 1782.88 183.122 1775.57 183.122C1770.51 183.122 1765.85 182.179 1761.6 180.293C1757.48 178.406 1753.88 175.518 1750.82 171.628C1747.87 167.738 1745.51 162.787 1743.75 156.774C1742.09 150.762 1741.27 143.63 1741.27 135.378C1741.27 127.126 1742.09 119.994 1743.75 113.982C1745.51 107.969 1747.87 103.018 1750.82 99.1279C1753.88 95.2376 1757.48 92.3494 1761.6 90.4632C1765.85 88.577 1770.51 87.634 1775.57 87.634C1779.23 87.634 1782.47 88.1055 1785.3 89.0486C1788.13 89.9917 1790.6 91.2884 1792.73 92.9388C1794.97 94.5892 1796.85 96.5933 1798.39 98.951C1800.04 101.191 1801.45 103.667 1802.63 106.378H1803.87V50.1461H1830.04V181H1803.87V164.378ZM1786.89 162.787C1791.49 162.787 1795.44 161.667 1798.74 159.427C1802.16 157.187 1803.87 153.65 1803.87 148.817V121.939C1803.87 117.106 1802.16 113.569 1798.74 111.329C1795.44 109.089 1791.49 107.969 1786.89 107.969C1781 107.969 1776.46 109.797 1773.28 113.451C1770.09 116.988 1768.5 121.939 1768.5 128.305V142.451C1768.5 148.817 1770.09 153.827 1773.28 157.482C1776.46 161.018 1781 162.787 1786.89 162.787Z" fill="white"/>
<path d="M365.5 261H373.5V291.8H373.9C377.233 285.4 382.533 282.2 389.8 282.2C396.133 282.2 401.067 284.567 404.6 289.3C408.2 294.033 410 300.667 410 309.2C410 317.733 408.2 324.367 404.6 329.1C401.067 333.833 396.133 336.2 389.8 336.2C382.533 336.2 377.233 333 373.9 326.6H373.5V335H365.5V261ZM386.7 329.1C391.367 329.1 394.967 327.7 397.5 324.9C400.1 322.033 401.4 318.267 401.4 313.6V304.8C401.4 300.133 400.1 296.4 397.5 293.6C394.967 290.733 391.367 289.3 386.7 289.3C384.9 289.3 383.2 289.533 381.6 290C380 290.467 378.6 291.167 377.4 292.1C376.2 292.967 375.233 294.067 374.5 295.4C373.833 296.667 373.5 298.167 373.5 299.9V318.5C373.5 320.233 373.833 321.767 374.5 323.1C375.233 324.367 376.2 325.467 377.4 326.4C378.6 327.267 380 327.933 381.6 328.4C383.2 328.867 384.9 329.1 386.7 329.1ZM462.661 283.4H470.661L445.061 346.3C444.461 347.767 443.794 349.033 443.061 350.1C442.328 351.233 441.461 352.133 440.461 352.8C439.461 353.533 438.261 354.067 436.861 354.4C435.461 354.8 433.794 355 431.861 355H424.261V348.2H436.261L442.061 334L421.261 283.4H429.461L438.161 305L445.861 324.6H446.261L453.961 305L462.661 283.4ZM560.183 335L539.483 265.2H548.383L558.283 300.1L565.783 326.5H566.283L573.783 300.1L583.683 265.2H592.283L571.583 335H560.183ZM629.044 272C626.71 272 625.077 271.533 624.144 270.6C623.21 269.6 622.744 268.367 622.744 266.9V265.3C622.744 263.833 623.21 262.633 624.144 261.7C625.077 260.7 626.71 260.2 629.044 260.2C631.377 260.2 633.01 260.7 633.944 261.7C634.877 262.633 635.344 263.833 635.344 265.3V266.9C635.344 268.367 634.877 269.6 633.944 270.6C633.01 271.533 631.377 272 629.044 272ZM606.444 328.2H625.044V290.2H606.444V283.4H633.044V328.2H650.444V335H606.444V328.2ZM686.405 336.2C681.005 336.2 676.338 335.3 672.405 333.5C668.538 331.633 665.238 329.167 662.505 326.1L667.905 321.4C670.371 324 673.071 326 676.005 327.4C678.938 328.8 682.471 329.5 686.605 329.5C690.605 329.5 693.871 328.8 696.405 327.4C699.005 325.933 700.305 323.667 700.305 320.6C700.305 319.267 700.038 318.167 699.505 317.3C699.038 316.367 698.371 315.633 697.505 315.1C696.638 314.567 695.671 314.167 694.605 313.9C693.538 313.567 692.405 313.3 691.205 313.1L683.105 311.9C681.305 311.633 679.338 311.267 677.205 310.8C675.138 310.333 673.238 309.6 671.505 308.6C669.771 307.533 668.305 306.133 667.105 304.4C665.971 302.667 665.405 300.4 665.405 297.6C665.405 295 665.905 292.767 666.905 290.9C667.971 288.967 669.438 287.367 671.305 286.1C673.171 284.767 675.371 283.8 677.905 283.2C680.438 282.533 683.205 282.2 686.205 282.2C690.871 282.2 694.905 282.933 698.305 284.4C701.771 285.867 704.738 287.9 707.205 290.5L702.005 295.4C701.405 294.667 700.638 293.933 699.705 293.2C698.838 292.4 697.738 291.7 696.405 291.1C695.138 290.433 693.638 289.9 691.905 289.5C690.171 289.1 688.171 288.9 685.905 288.9C681.838 288.9 678.705 289.6 676.505 291C674.371 292.4 673.305 294.433 673.305 297.1C673.305 298.433 673.538 299.567 674.005 300.5C674.538 301.367 675.238 302.067 676.105 302.6C676.971 303.133 677.938 303.567 679.005 303.9C680.138 304.167 681.271 304.4 682.405 304.6L690.505 305.8C692.371 306.067 694.338 306.433 696.405 306.9C698.471 307.367 700.371 308.133 702.105 309.2C703.838 310.2 705.271 311.567 706.405 313.3C707.605 315.033 708.205 317.3 708.205 320.1C708.205 325.233 706.205 329.2 702.205 332C698.271 334.8 693.005 336.2 686.405 336.2ZM757.966 326.6H757.566C757.032 327.867 756.366 329.1 755.566 330.3C754.766 331.433 753.766 332.433 752.566 333.3C751.432 334.167 750.066 334.867 748.466 335.4C746.866 335.933 744.999 336.2 742.866 336.2C737.466 336.2 733.132 334.5 729.866 331.1C726.599 327.633 724.966 322.767 724.966 316.5V283.4H732.966V315.1C732.966 319.833 733.999 323.367 736.066 325.7C738.132 327.967 741.166 329.1 745.166 329.1C746.766 329.1 748.332 328.9 749.866 328.5C751.399 328.1 752.766 327.5 753.966 326.7C755.166 325.9 756.132 324.9 756.866 323.7C757.599 322.433 757.966 320.933 757.966 319.2V283.4H765.966V335H757.966V326.6ZM825.227 335C822.093 335 819.86 334.2 818.527 332.6C817.193 331 816.36 329 816.027 326.6H815.527C814.393 329.6 812.56 331.967 810.027 333.7C807.56 335.367 804.227 336.2 800.027 336.2C794.627 336.2 790.327 334.8 787.127 332C783.927 329.2 782.327 325.367 782.327 320.5C782.327 315.7 784.06 312 787.527 309.4C791.06 306.8 796.727 305.5 804.527 305.5H815.527V300.4C815.527 296.6 814.46 293.767 812.327 291.9C810.193 289.967 807.16 289 803.227 289C799.76 289 796.927 289.7 794.727 291.1C792.527 292.433 790.76 294.267 789.427 296.6L784.027 292.6C784.693 291.267 785.593 289.967 786.727 288.7C787.86 287.433 789.26 286.333 790.927 285.4C792.593 284.4 794.493 283.633 796.627 283.1C798.76 282.5 801.127 282.2 803.727 282.2C809.793 282.2 814.593 283.733 818.127 286.8C821.727 289.867 823.527 294.133 823.527 299.6V328H830.727V335H825.227ZM801.427 329.5C803.493 329.5 805.36 329.267 807.027 328.8C808.76 328.267 810.26 327.6 811.527 326.8C812.793 325.933 813.76 324.933 814.427 323.8C815.16 322.6 815.527 321.333 815.527 320V311.5H804.527C799.727 311.5 796.227 312.167 794.027 313.5C791.827 314.833 790.727 316.767 790.727 319.3V321.4C790.727 324.067 791.66 326.1 793.527 327.5C795.46 328.833 798.093 329.5 801.427 329.5ZM843.688 328.2H861.688V267.8H843.688V261H869.688V328.2H887.688V335H843.688V328.2ZM904.648 335V265.2H947.648V272.5H913.048V296H946.448V303.3H913.048V327.7H947.648V335H904.648ZM1002.31 283.4H1010.31L984.709 346.3C984.109 347.767 983.443 349.033 982.709 350.1C981.976 351.233 981.109 352.133 980.109 352.8C979.109 353.533 977.909 354.067 976.509 354.4C975.109 354.8 973.443 355 971.509 355H963.909V348.2H975.909L981.709 334L960.909 283.4H969.109L977.809 305L985.509 324.6H985.909L993.609 305L1002.31 283.4ZM1046.47 336.2C1042.74 336.2 1039.37 335.567 1036.37 334.3C1033.44 333.033 1030.9 331.233 1028.77 328.9C1026.7 326.5 1025.1 323.667 1023.97 320.4C1022.84 317.067 1022.27 313.367 1022.27 309.3C1022.27 305.167 1022.84 301.433 1023.97 298.1C1025.17 294.767 1026.8 291.933 1028.87 289.6C1030.94 287.2 1033.4 285.367 1036.27 284.1C1039.2 282.833 1042.44 282.2 1045.97 282.2C1049.44 282.2 1052.57 282.833 1055.37 284.1C1058.24 285.367 1060.67 287.133 1062.67 289.4C1064.67 291.6 1066.2 294.233 1067.27 297.3C1068.34 300.367 1068.87 303.733 1068.87 307.4V311.2H1030.67V313.6C1030.67 315.867 1031.04 317.967 1031.77 319.9C1032.5 321.833 1033.54 323.5 1034.87 324.9C1036.27 326.3 1037.94 327.4 1039.87 328.2C1041.87 328.933 1044.07 329.3 1046.47 329.3C1049.94 329.3 1052.94 328.5 1055.47 326.9C1058 325.3 1059.94 323.1 1061.27 320.3L1067.17 324.3C1065.64 327.767 1063.07 330.633 1059.47 332.9C1055.94 335.1 1051.6 336.2 1046.47 336.2ZM1045.97 288.8C1043.77 288.8 1041.74 289.2 1039.87 290C1038 290.8 1036.37 291.9 1034.97 293.3C1033.64 294.7 1032.57 296.367 1031.77 298.3C1031.04 300.167 1030.67 302.233 1030.67 304.5V305.2H1060.27V304.1C1060.27 301.833 1059.9 299.767 1059.17 297.9C1058.5 296.033 1057.54 294.433 1056.27 293.1C1055.07 291.7 1053.57 290.633 1051.77 289.9C1050.04 289.167 1048.1 288.8 1045.97 288.8ZM1106.13 336.2C1100.73 336.2 1096.06 335.3 1092.13 333.5C1088.26 331.633 1084.96 329.167 1082.23 326.1L1087.63 321.4C1090.1 324 1092.8 326 1095.73 327.4C1098.66 328.8 1102.2 329.5 1106.33 329.5C1110.33 329.5 1113.6 328.8 1116.13 327.4C1118.73 325.933 1120.03 323.667 1120.03 320.6C1120.03 319.267 1119.76 318.167 1119.23 317.3C1118.76 316.367 1118.1 315.633 1117.23 315.1C1116.36 314.567 1115.4 314.167 1114.33 313.9C1113.26 313.567 1112.13 313.3 1110.93 313.1L1102.83 311.9C1101.03 311.633 1099.06 311.267 1096.93 310.8C1094.86 310.333 1092.96 309.6 1091.23 308.6C1089.5 307.533 1088.03 306.133 1086.83 304.4C1085.7 302.667 1085.13 300.4 1085.13 297.6C1085.13 295 1085.63 292.767 1086.63 290.9C1087.7 288.967 1089.16 287.367 1091.03 286.1C1092.9 284.767 1095.1 283.8 1097.63 283.2C1100.16 282.533 1102.93 282.2 1105.93 282.2C1110.6 282.2 1114.63 282.933 1118.03 284.4C1121.5 285.867 1124.46 287.9 1126.93 290.5L1121.73 295.4C1121.13 294.667 1120.36 293.933 1119.43 293.2C1118.56 292.4 1117.46 291.7 1116.13 291.1C1114.86 290.433 1113.36 289.9 1111.63 289.5C1109.9 289.1 1107.9 288.9 1105.63 288.9C1101.56 288.9 1098.43 289.6 1096.23 291C1094.1 292.4 1093.03 294.433 1093.03 297.1C1093.03 298.433 1093.26 299.567 1093.73 300.5C1094.26 301.367 1094.96 302.067 1095.83 302.6C1096.7 303.133 1097.66 303.567 1098.73 303.9C1099.86 304.167 1101 304.4 1102.13 304.6L1110.23 305.8C1112.1 306.067 1114.06 306.433 1116.13 306.9C1118.2 307.367 1120.1 308.133 1121.83 309.2C1123.56 310.2 1125 311.567 1126.13 313.3C1127.33 315.033 1127.93 317.3 1127.93 320.1C1127.93 325.233 1125.93 329.2 1121.93 332C1118 334.8 1112.73 336.2 1106.13 336.2Z" fill="white"/>
</svg>
