<svg width="1080" height="180" viewBox="0 0 1080 180" fill="none" xmlns="http://www.w3.org/2000/svg">
<g clip-path="url(#clip0)">
<g opacity="0.1">
<path fill-rule="evenodd" clip-rule="evenodd" d="M-16.5745 147.994C-24.4518 116.968 -16.2272 91.1221 8.09945 70.4563C32.1091 52.937 57.8749 61.7913 85.3968 97.0193C112.919 132.247 104.773 157.306 60.9606 172.197C17.1479 187.087 -8.69714 179.019 -16.5745 147.994ZM7.98408 135.609C2.51095 114.021 8.25312 96.0306 25.2106 81.6374C41.8865 69.4625 59.8177 75.6194 79.0043 100.108C98.1909 124.597 92.5191 142.033 61.989 152.416C31.4588 162.799 13.4572 157.196 7.98408 135.609Z" fill="white"/>
<path fill-rule="evenodd" clip-rule="evenodd" d="M28.9975 124.95C25.7069 111.864 29.2539 100.935 39.6386 92.1632C49.7861 84.7667 60.7022 88.4686 72.3871 103.269C84.072 118.069 80.5843 128.654 61.9239 135.024C43.2636 141.393 32.2882 138.035 28.9975 124.95ZM44.9752 116.807C43.4751 110.706 45.2123 105.581 50.1869 101.432C55.0422 97.9271 60.2094 99.606 65.6884 106.469C71.1674 113.331 69.46 118.295 60.5662 121.361C51.6724 124.426 46.4754 122.908 44.9752 116.807Z" fill="white"/>
</g>
</g>
<defs>
<clipPath id="clip0">
<rect width="1080" height="180" fill="white"/>
</clipPath>
</defs>
</svg>
